<?xml version="1.0" encoding="utf-8"?>
<!-- Generator: Adobe Illustrator 27.0.1, SVG Export Plug-In . SVG Version: 6.00 Build 0)  -->
<svg version="1.1" id="Layer_1" xmlns="http://www.w3.org/2000/svg" xmlns:xlink="http://www.w3.org/1999/xlink" x="0px" y="0px"
	 viewBox="0 0 507.5 353.5" style="enable-background:new 0 0 507.5 353.5;" xml:space="preserve">
<style type="text/css">
	.st0{fill:#242B57;}
	.st1{fill:url(#SVGID_1_);}
	.st2{fill:url(#SVGID_00000102508337125996030300000001289445231124242066_);}
	.st3{fill:url(#SVGID_00000127737792989463136350000006831824135025457850_);}
	.st4{fill:url(#SVGID_00000147181887982537327590000007384900114720262016_);}
	.st5{fill:url(#SVGID_00000103978472300800448310000002689357306107845047_);}
	.st6{opacity:0.2;fill:#FFFFFF;enable-background:new    ;}
	.st7{fill:url(#SVGID_00000123409101263279963040000018112981067411445899_);}
	.st8{fill:#FFFFFF;}
	.st9{fill:#384A76;}
	.st10{fill:#B7B4C5;}
	.st11{opacity:0.3;fill:#D0D9F4;enable-background:new    ;}
</style>
<path class="st0" d="M10.2,268.8c0,30.8,82.9,50.2,212.5,73.1C368.2,367.5,448,330.8,448,300s-77.6-69.6-225.3-69.6
	S10.2,238,10.2,268.8z"/>
<linearGradient id="SVGID_1_" gradientUnits="userSpaceOnUse" x1="112.9473" y1="292.9655" x2="106.8188" y2="167.3324" gradientTransform="matrix(1 0 0 -1 0 356)">
	<stop  offset="0" style="stop-color:#873274"/>
	<stop  offset="0.9988" style="stop-color:#BA2151"/>
</linearGradient>
<path class="st1" d="M157,114c-12.4-23.7-34.5-45-61.7-56.7c-25.5,18.4-40.5,65.3-40.5,120.3c0,51.6,23.2,50.4,23.7,56.6
	c0.7,9.6,13.7,32.4,17.1,35.5c4.1,3.8,30.1,7.5,28.1,1c-6.2-20.4,17-29.5,31.5-53.9c6.3-10.6,3-25.3,3-39.2
	C158.1,154.4,158.2,132.7,157,114L157,114z"/>
<linearGradient id="SVGID_00000111910350183642997280000017897714642918209965_" gradientUnits="userSpaceOnUse" x1="226.0284" y1="280.9864" x2="219.9464" y2="156.3048" gradientTransform="matrix(1 0 0 -1 0 356)">
	<stop  offset="0" style="stop-color:#873274"/>
	<stop  offset="0.9988" style="stop-color:#BA2151"/>
</linearGradient>
<path style="fill:url(#SVGID_00000111910350183642997280000017897714642918209965_);" d="M209.3,69.3
	c-25.5,18.4-40.5,65.3-40.5,120.3c0,51.6,33.7,85.6,38.2,90c4.5,4.5,36.3,8.6,31.9-0.5c-4-8.1,25.4-17,30.3-50.4
	c1.9-12.3,3-25.3,3-39.2c0-23.1,0.1-44.8-1.1-63.5C258.7,102.4,236.6,80.9,209.3,69.3L209.3,69.3z"/>
<linearGradient id="SVGID_00000075876581129709960260000009126086769734036666_" gradientUnits="userSpaceOnUse" x1="380.7618" y1="309.3045" x2="374.1154" y2="173.054" gradientTransform="matrix(1 0 0 -1 0 356)">
	<stop  offset="0" style="stop-color:#873274"/>
	<stop  offset="0.9988" style="stop-color:#BA2151"/>
</linearGradient>
<path style="fill:url(#SVGID_00000075876581129709960260000009126086769734036666_);" d="M441.5,233.2c-3.7-0.8-13.8,8.2-16.8-0.5
	c-1.7-4.5-32.1,13.8-29.3,5.2c11.3-34.4,36.5-47.8,36.5-65.3c0-29-8.8-38.4-10.3-62c-16.1-29.8-45-56.6-80.4-71.3
	c-33.2,23.1-44,64.1-44,133.2c0,64.8,47.6,91,54.3,94.9c20.3,12,63.2,11.6,84.6-5.2C448.9,252.2,455.6,236,441.5,233.2z"/>
<linearGradient id="SVGID_00000108283599784098326470000014554256030186024116_" gradientUnits="userSpaceOnUse" x1="9052.4014" y1="264.288" x2="9052.4014" y2="-19.0665" gradientTransform="matrix(-1 0 0 -1 9278.9893 356)">
	<stop  offset="0" style="stop-color:#FFB694"/>
	<stop  offset="0.9988" style="stop-color:#F84246"/>
</linearGradient>
<path style="fill:url(#SVGID_00000108283599784098326470000014554256030186024116_);" d="M5.2,166.8c5.9,51.4,33.3,96.7,36.3,105.3
	c3.5,10,26.7,11.5,26.7,11.5c13.9,0.3,2.6-12.6,7.8-25.4c3.3-8.3,31.4-22,40.5-23.4c7.1,18.5,12.4,31.6,13.2,34.4
	c3.7,14.1,19.1,25.8,28.3,27.8c8.1,1.8,31.5,4.5,18-8.9c-4.4-4.4,2.6-15.4,18.3-37.9c5.9-8.4,10.9-15.8,16.3-32.6
	c12.5,22.2,25.4,42.4,32.7,59.9c4.5,10.7,7.1,17.7,12.1,23.9c4.5,5.6,16,8.8,23.8,9c12.1,0.5,39-1,22.4-13.5c-5.3-4,16-27,17.9-29
	c0-0.1,0.1-0.2,0.2-0.2c9.6-11.2,27.4-15.5,45.8-19.6c18.7-4.1,83.4-37,83.4-98.8c0-14.6-2-27.4-5.3-38.8c-0.5-1.7-1-3.2-1.6-4.8
	c-16-47.2-57-67.3-81.1-79.3c-3.5-1.9-7.2-3.5-10.9-5C334.6,15,317.9,11,300.5,10.1c-25.7-4-51.2-6.4-75.9-6.8
	c-19.6-0.4-38.5,0.4-56.6,2.5c-16.2,1.8-31.8,4.6-46.5,8.5C99.9,19.9,80.1,27.7,62.8,38C11.1,68.7,0.8,127.9,5.2,166.8z"/>
<linearGradient id="SVGID_00000136407049155914097790000009012139178684625848_" gradientUnits="userSpaceOnUse" x1="8964.6162" y1="262.4579" x2="8964.6162" y2="177.0737" gradientTransform="matrix(-1 0 0 -1 9278.9893 356)">
	<stop  offset="0" style="stop-color:#873274"/>
	<stop  offset="0.9988" style="stop-color:#BA2151"/>
</linearGradient>
<path style="fill:url(#SVGID_00000136407049155914097790000009012139178684625848_);" d="M319.6,268.1c0-0.1,0.1-0.2,0.2-0.2
	c9.6-11.2,27.4-15.5,45.8-19.6c-26.2,0.7-55.9-7.5-81.9-35.2C222.2,147.4,318,269.5,319.6,268.1z"/>
<path class="st6" d="M167.9,5.8C73,95.4,140,246.9,140,150.1c0-76.2,55.5-126,84.5-146.9C205,2.9,186.1,3.7,167.9,5.8z M62.8,38
	c-34.5,76.2,4.3,155.6,7.6,82c2.1-46.6,26.3-81.7,51-105.8C99.9,19.8,80.1,27.7,62.8,38z M350.1,21.4c-18.7-7.7-39.1-12-60.5-11.6
	c-102.4,27.3-50,192.3-37.3,90.9C263.6,9.8,338.1,20.8,361,26.4C357.4,24.7,353.8,23,350.1,21.4L350.1,21.4z"/>
<linearGradient id="SVGID_00000089552544175012306390000000249156947001119616_" gradientUnits="userSpaceOnUse" x1="8879.4492" y1="260.2736" x2="8879.4492" y2="146.7345" gradientTransform="matrix(-1 0 0 -1 9278.9893 356)">
	<stop  offset="0" style="stop-color:#FFA274"/>
	<stop  offset="0.9988" style="stop-color:#F84246"/>
</linearGradient>
<path style="fill:url(#SVGID_00000089552544175012306390000000249156947001119616_);" d="M360.1,149.1c0,23.6,17.6,42.7,39.4,42.7
	c1.6,0,3-0.1,4.5-0.3C423.7,189,439,171,439,149.1c0-21.9-15.2-39.9-34.9-42.4c-1.5-0.2-3-0.3-4.5-0.3
	C377.7,106.4,360.1,125.5,360.1,149.1z"/>
<ellipse class="st8" cx="404" cy="149.1" rx="34.9" ry="42.4"/>
<path class="st9" d="M394,151.6c-0.7-8.6,6.5-2.3,14.5-2.3c8,0,14.5-6.3,14.5,2.3c0,2.7-0.6,5.1-1.7,7.3c-2.4,4.9-7.3,9.2-12.8,8.3
	C403.3,166.4,395,162.5,394,151.6L394,151.6z"/>
<path class="st10" d="M417,161.2c0,0-5.2-3.7-9.6-2.4c-4.4,1.4-8,1.4-8,1.4s5.1,4.9,10,5.1C414.8,165.5,417,161.2,417,161.2
	L417,161.2z"/>
<path class="st9" d="M340.2,115.6c-8.9,0-11.2-9.4-11.2-4.5c0,4.9,5,8.9,11.2,8.9c6.2,0,11.2-4,11.2-8.9
	C351.5,106.2,350.4,115.6,340.2,115.6z M438.6,110.7c0,4.9,2.6,8.9,5.6,8.9c0.7,0,1.4-0.2,2-0.6l-0.9-4.1c-0.4,0.1-0.7,0.2-1.1,0.2
	C439.8,115.2,438.6,105.7,438.6,110.7z M502.3,142.5c-20.9,26.9-78.9,106.8-81.5,109.5c-2.5,2.5-5.8,1.2-3.7-1.6
	c6.7-9.3,75.4-99.9,83.2-110.3C502.1,137.6,504.1,140.3,502.3,142.5L502.3,142.5z"/>
<ellipse transform="matrix(0.2338 -0.9723 0.9723 0.2338 148.7576 426.6223)" class="st6" cx="345.1" cy="118.9" rx="27.4" ry="22.7"/>
<path class="st9" d="M341.6,146.4c-1.6,0-3.1-0.2-4.7-0.6c-6.2-1.5-11.3-5.8-14.4-12.1s-3.7-13.8-2-21.1s5.8-13.7,11.4-17.9
	s12.1-5.7,18.3-4.2c12.7,3,20.1,18,16.4,33.2c-1.8,7.4-5.8,13.7-11.4,17.9C351.1,144.8,346.3,146.4,341.6,146.4L341.6,146.4z
	 M345.5,91.9c-4.3,0-8.6,1.5-12.5,4.4c-5.2,3.9-8.9,9.8-10.6,16.8c-1.7,6.9-1,14,1.9,19.8c2.9,5.8,7.5,9.7,13.1,11
	c5.6,1.4,11.5,0,16.7-3.9c5.2-3.9,8.9-9.8,10.6-16.8c3.4-14.2-3.3-28-14.9-30.9C348.3,92.1,346.9,91.9,345.5,91.9L345.5,91.9z"/>
<g>
	
		<ellipse transform="matrix(0.138 -0.9904 0.9904 0.138 275.1482 545.0267)" class="st11" cx="450.7" cy="114.4" rx="22.1" ry="15.2"/>
	<path class="st9" d="M448.1,137c-0.6,0-1.1,0-1.7-0.1c-4.3-0.6-8.2-3.6-10.5-8.5c-2.4-4.7-3.2-10.6-2.4-16.7
		c0.9-6,3.2-11.5,6.9-15.3c3.6-3.9,8.1-5.8,12.5-5.2c8.9,1.3,14.7,12.5,12.9,25.1c-0.9,6-3.2,11.5-6.9,15.3
		C455.7,135.1,451.9,137,448.1,137z M451.2,93c-3.2,0-6.6,1.7-9.3,4.7c-3.3,3.6-5.5,8.7-6.3,14.4c-0.8,5.6,0,11.1,2.2,15.5
		c2.2,4.2,5.3,6.9,9,7.4s7.6-1.1,10.7-4.6c3.3-3.6,5.5-8.7,6.3-14.4c1.6-11.5-3.4-21.8-11.2-22.9C452.1,93,451.7,93,451.2,93
		L451.2,93z"/>
</g>
</svg>
